<svg width="433" height="246" viewBox="0 0 433 246" fill="none" xmlns="http://www.w3.org/2000/svg">
<path d="M193.046 -264.76C193.057 -264.708 193.078 -264.6 193.111 -264.439C193.185 -264.081 193.315 -263.457 193.5 -262.583C193.871 -260.835 194.467 -258.086 195.29 -254.452C196.939 -247.175 199.493 -236.39 202.981 -223C209.988 -196.1 220.606 -159.303 235.01 -119.626C265.755 -34.9323 306.665 42.4895 351.671 78.9794C387.106 107.71 422.834 113.862 486.066 119.298C546.351 124.481 636.985 128.64 726.394 186.327C811.077 240.965 887.164 333.526 938.339 403.745C964.988 440.31 987.005 473.822 1002.38 498.22C1010.09 510.451 1016.19 520.478 1020.42 527.556C1022.53 531.097 1024.19 533.907 1025.35 535.892C1025.93 536.885 1026.38 537.674 1026.71 538.244C1026.88 538.529 1027.01 538.76 1027.11 538.935C1027.16 539.023 1027.21 539.097 1027.24 539.157C1027.26 539.187 1027.27 539.213 1027.28 539.235C1027.29 539.247 1027.3 539.262 1027.3 539.268C1027.3 539.289 1026.24 539.91 941.859 588.146C858.556 635.765 856.461 636.976 856.414 637.016C856.386 636.969 856.327 636.869 856.239 636.718C856.061 636.409 855.76 635.89 855.34 635.171C854.5 633.733 853.187 631.498 851.429 628.557C847.911 622.671 842.631 613.979 835.835 603.197C822.2 581.566 802.681 551.866 779.237 519.698C730.227 452.45 671.896 385.459 619.659 351.755C577.865 324.79 537.468 321.316 469.201 315.447C403.881 309.831 313.534 301.509 227.683 231.904C137.706 158.951 82.0391 35.9366 49.9543 -52.4471C32.943 -99.3078 20.5834 -142.21 12.4658 -173.374C8.39122 -189.016 5.34528 -201.855 3.28583 -210.943C2.25529 -215.491 1.46954 -219.112 0.922857 -221.686C0.649458 -222.973 0.435937 -223.999 0.281291 -224.751C0.203909 -225.127 0.140428 -225.434 0.0924739 -225.67C0.0684969 -225.789 0.048532 -225.889 0.0319447 -225.972C0.0237051 -226.014 0.0164997 -226.05 0.00995447 -226.083C0.00674431 -226.099 0.00156431 -226.121 -4.09327e-05 -226.129C-0.00210528 -226.149 0.422329 -226.253 96.5246 -245.434C192.668 -264.624 193.052 -264.717 193.05 -264.733C193.05 -264.737 193.047 -264.751 193.046 -264.758L193.046 -264.76ZM856.421 637.033C856.419 637.029 856.414 637.02 856.412 637.018L856.414 637.016L856.414 637.019L856.421 637.033Z" fill="url(#paint0_linear_424_553)"/>
<defs>
<linearGradient id="paint0_linear_424_553" x1="447.426" y1="217.5" x2="183.426" y2="-8.49998" gradientUnits="userSpaceOnUse">
<stop stop-color="#4F00A4"/>
<stop offset="1" stop-color="#1E003E"/>
</linearGradient>
</defs>
</svg>
