<svg width="28" height="28" viewBox="0 0 28 28" fill="none" xmlns="http://www.w3.org/2000/svg">
<path d="M18.5033 5.12134V22.6213C18.5033 24.5697 19.8333 25.6663 21.2916 25.6663C22.6216 25.6663 24.0799 24.7447 24.0799 22.6213V5.24967C24.0799 3.45301 22.7499 2.33301 21.2916 2.33301C19.8333 2.33301 18.5033 3.56967 18.5033 5.12134ZM11.2116 13.9997V22.6213C11.2116 24.5813 12.5649 25.6663 13.9999 25.6663C15.3299 25.6663 16.7883 24.7447 16.7883 22.6213V14.128C16.7883 12.3313 15.4583 11.2113 13.9999 11.2113C12.5416 11.2113 11.2116 12.448 11.2116 13.9997ZM6.70826 20.1013C8.24826 20.1013 9.49659 21.3497 9.49659 22.878C9.49659 23.6175 9.20282 24.3267 8.6799 24.8497C8.15699 25.3726 7.44777 25.6663 6.70826 25.6663C5.96874 25.6663 5.25952 25.3726 4.73661 24.8497C4.21369 24.3267 3.91992 23.6175 3.91992 22.878C3.91992 21.3497 5.16826 20.1013 6.70826 20.1013Z" fill="#EBEBEB"/>
</svg>
