<svg width="20" height="20" viewBox="0 0 20 20" fill="none" xmlns="http://www.w3.org/2000/svg">
<path d="M8.9585 10.0002C8.9585 9.7239 9.06824 9.45894 9.26359 9.26359C9.45894 9.06824 9.7239 8.9585 10.0002 8.9585C10.2764 8.9585 10.5414 9.06824 10.7367 9.26359C10.9321 9.45894 11.0418 9.7239 11.0418 10.0002C11.0418 10.2764 10.9321 10.5414 10.7367 10.7367C10.5414 10.9321 10.2764 11.0418 10.0002 11.0418C9.7239 11.0418 9.45894 10.9321 9.26359 10.7367C9.06824 10.5414 8.9585 10.2764 8.9585 10.0002Z" fill="#EBEBEB"/>
<path d="M1.61926 8.46092C2.88176 6.72842 5.7651 3.54175 10.0001 3.54175C14.2351 3.54175 17.1184 6.72842 18.3809 8.46092L18.4001 8.48675C18.6151 8.78258 18.7901 9.02258 18.8984 9.43842C18.9443 9.61508 18.9584 9.82508 18.9584 10.0001C18.9584 10.1751 18.9443 10.3851 18.8984 10.5617C18.7901 10.9784 18.6151 11.2176 18.4001 11.5134L18.3809 11.5392C17.1184 13.2717 14.2351 16.4584 10.0001 16.4584C5.7651 16.4584 2.88176 13.2717 1.61926 11.5392L1.6001 11.5134C1.3851 11.2176 1.2101 10.9776 1.10176 10.5617C1.05909 10.3776 1.03894 10.189 1.04176 10.0001C1.04176 9.82508 1.05593 9.61508 1.10176 9.43842C1.2101 9.02175 1.3851 8.78258 1.6001 8.48675L1.61926 8.46092ZM7.70843 10.0001C7.70843 10.6079 7.94987 11.1908 8.37964 11.6205C8.80941 12.0503 9.39231 12.2917 10.0001 12.2917C10.6079 12.2917 11.1908 12.0503 11.6206 11.6205C12.0503 11.1908 12.2918 10.6079 12.2918 10.0001C12.2918 9.39229 12.0503 8.8094 11.6206 8.37963C11.1908 7.94986 10.6079 7.70842 10.0001 7.70842C9.39231 7.70842 8.80941 7.94986 8.37964 8.37963C7.94987 8.8094 7.70843 9.39229 7.70843 10.0001ZM8.95843 10.0001C8.95843 9.72381 9.06818 9.45886 9.26353 9.26351C9.45888 9.06816 9.72383 8.95842 10.0001 8.95842C10.2764 8.95842 10.5413 9.06816 10.7367 9.26351C10.932 9.45886 11.0418 9.72381 11.0418 10.0001C11.0418 10.2763 10.932 10.5413 10.7367 10.7367C10.5413 10.932 10.2764 11.0417 10.0001 11.0417C9.72383 11.0417 9.45888 10.932 9.26353 10.7367C9.06818 10.5413 8.95843 10.2763 8.95843 10.0001Z" fill="#EBEBEB"/>
</svg>
